<svg width="16" height="16" viewBox="0 0 16 16" fill="none" xmlns="http://www.w3.org/2000/svg">
<path d="M14 1H8C7.70833 1 7.46875 1.09375 7.28125 1.28125C7.09375 1.46875 7 1.70833 7 2V5H6V2C6 1.45833 6.19792 0.989583 6.59375 0.59375C6.98958 0.197917 7.45833 0 8 0H14C14.5417 0 15.0104 0.197917 15.4062 0.59375C15.8021 0.989583 16 1.45833 16 2V8C16 8.54167 15.8021 9.01042 15.4062 9.40625C15.0104 9.80208 14.5417 10 14 10H11V9H14C14.2917 9 14.5312 8.90625 14.7188 8.71875C14.9062 8.53125 15 8.29167 15 8V2C15 1.70833 14.9062 1.46875 14.7188 1.28125C14.5312 1.09375 14.2917 1 14 1ZM0.15625 6.15625C0.260417 6.05208 0.375 6 0.5 6C0.625 6 0.739583 6.05208 0.84375 6.15625L5 10.2812L9.15625 6.15625C9.26042 6.05208 9.375 6 9.5 6C9.625 6 9.73958 6.05208 9.84375 6.15625C9.94792 6.26042 10 6.375 10 6.5C10 6.625 9.94792 6.73958 9.84375 6.84375L5.71875 11L9.84375 15.1562C9.94792 15.2604 10 15.375 10 15.5C10 15.625 9.94792 15.7396 9.84375 15.8438C9.73958 15.9479 9.625 16 9.5 16C9.375 16 9.26042 15.9479 9.15625 15.8438L5 11.7188L0.84375 15.8438C0.739583 15.9479 0.625 16 0.5 16C0.375 16 0.260417 15.9479 0.15625 15.8438C0.0520833 15.7396 0 15.625 0 15.5C0 15.375 0.0520833 15.2604 0.15625 15.1562L4.28125 11L0.15625 6.84375C0.0520833 6.73958 0 6.625 0 6.5C0 6.375 0.0520833 6.26042 0.15625 6.15625Z" fill="#656C87"/>
</svg>
