<svg width="10" height="10" viewBox="0 0 10 10" fill="none" xmlns="http://www.w3.org/2000/svg">
<path d="M0.65625 8.84375C0.552083 8.92708 0.5 9.04167 0.5 9.1875C0.5 9.33333 0.552083 9.44792 0.65625 9.53125C0.697917 9.59375 0.75 9.63542 0.8125 9.65625C0.875 9.67708 0.9375 9.6875 1 9.6875C1.0625 9.6875 1.125 9.67708 1.1875 9.65625C1.25 9.63542 1.30208 9.59375 1.34375 9.53125L5 5.90625L8.65625 9.53125C8.69792 9.59375 8.75 9.63542 8.8125 9.65625C8.875 9.67708 8.9375 9.6875 9 9.6875C9.0625 9.6875 9.125 9.67708 9.1875 9.65625C9.25 9.63542 9.30208 9.59375 9.34375 9.53125C9.44792 9.44792 9.5 9.33333 9.5 9.1875C9.5 9.04167 9.44792 8.92708 9.34375 8.84375L5.71875 5.1875L9.34375 1.53125C9.44792 1.44792 9.5 1.33333 9.5 1.1875C9.5 1.04167 9.44792 0.927083 9.34375 0.84375C9.26042 0.739583 9.14583 0.6875 9 0.6875C8.85417 0.6875 8.73958 0.739583 8.65625 0.84375L5 4.46875L1.34375 0.84375C1.26042 0.739583 1.14583 0.6875 1 0.6875C0.854167 0.6875 0.739583 0.739583 0.65625 0.84375C0.552083 0.927083 0.5 1.04167 0.5 1.1875C0.5 1.33333 0.552083 1.44792 0.65625 1.53125L4.28125 5.1875L0.65625 8.84375Z" fill="#C2140A"/>
</svg>
