<svg width="20" height="21" viewBox="0 0 20 21" fill="none" xmlns="http://www.w3.org/2000/svg">
<path fill-rule="evenodd" clip-rule="evenodd" d="M4 3.5C4 1.84315 5.34315 0.5 7 0.5C8.65685 0.5 10 1.84315 10 3.5C10 5.15685 8.65685 6.5 7 6.5C5.34315 6.5 4 5.15685 4 3.5ZM7 5.5C5.89543 5.5 5 4.60457 5 3.5C5 2.39543 5.89543 1.5 7 1.5C8.10457 1.5 9 2.39543 9 3.5C9 4.60457 8.10457 5.5 7 5.5Z" fill="#9CB1C7"/>
<path fill-rule="evenodd" clip-rule="evenodd" d="M13 5.5C11.3431 5.5 10 6.84315 10 8.5C10 10.1569 11.3431 11.5 13 11.5C14.6569 11.5 16 10.1569 16 8.5C16 6.84315 14.6569 5.5 13 5.5ZM11 8.5C11 9.60457 11.8954 10.5 13 10.5C14.1046 10.5 15 9.60457 15 8.5C15 7.39543 14.1046 6.5 13 6.5C11.8954 6.5 11 7.39543 11 8.5Z" fill="#9CB1C7"/>
<path d="M1.32805 14.5039H4.91576V15.5H0L1.30823 10.7148V10.6953C1.48001 10.0703 1.8368 9.54948 2.37859 9.13281C2.92038 8.71615 3.54146 8.50781 4.24182 8.50781H7.96829V9.50391H4.222C3.7595 9.50391 3.34985 9.64714 2.99306 9.93359C2.63627 10.207 2.39841 10.5586 2.27948 10.9883L1.32805 14.5039Z" fill="#9CB1C7"/>
<path fill-rule="evenodd" clip-rule="evenodd" d="M20 20.5H6.08523L7.39346 15.7148V15.6953C7.56525 15.0703 7.92204 14.5495 8.46383 14.1328C9.00562 13.7161 9.62669 13.5078 10.3271 13.5078H15.7582C16.4585 13.5078 17.073 13.7161 17.6016 14.1328C18.1434 14.5495 18.5068 15.0768 18.6918 15.7148L20 20.5ZM18.672 19.5039L17.7205 15.9883V15.9688C17.6016 15.5521 17.3571 15.207 16.9871 14.9336C16.6303 14.6471 16.2207 14.5039 15.7582 14.5039H10.3271C9.86455 14.5169 9.46151 14.6667 9.11794 14.9531C8.77436 15.2266 8.54311 15.5716 8.42418 15.9883L7.41328 19.5039H18.672Z" fill="#9CB1C7"/>
</svg>
