<svg width="16" height="17" viewBox="0 0 16 17" fill="none" xmlns="http://www.w3.org/2000/svg">
<path d="M8 0.5C9.10417 0.5 10.1458 0.708333 11.125 1.125C12.0833 1.54167 12.9271 2.11458 13.6562 2.84375C14.3854 3.57292 14.9583 4.41667 15.375 5.375C15.7917 6.35417 16 7.39583 16 8.5C16 9.60417 15.7917 10.6458 15.375 11.625C14.9583 12.5833 14.3854 13.4271 13.6562 14.1562C12.9271 14.8854 12.0833 15.4583 11.125 15.875C10.1458 16.2917 9.10417 16.5 8 16.5C6.89583 16.5 5.85417 16.2917 4.875 15.875C3.91667 15.4583 3.07292 14.8854 2.34375 14.1562C1.61458 13.4271 1.04167 12.5833 0.625 11.625C0.208333 10.6458 0 9.60417 0 8.5C0 7.39583 0.208333 6.35417 0.625 5.375C1.04167 4.41667 1.61458 3.57292 2.34375 2.84375C3.07292 2.11458 3.91667 1.54167 4.875 1.125C5.85417 0.708333 6.89583 0.5 8 0.5ZM8 15.5C8.95833 15.5 9.86458 15.3125 10.7188 14.9375C11.5729 14.5833 12.3125 14.0938 12.9375 13.4688C13.5833 12.8229 14.0833 12.0729 14.4375 11.2188C14.8125 10.3646 15 9.45833 15 8.5C15 7.54167 14.8125 6.63542 14.4375 5.78125C14.0833 4.92708 13.5833 4.1875 12.9375 3.5625C12.3125 2.91667 11.5729 2.41667 10.7188 2.0625C9.86458 1.6875 8.95833 1.5 8 1.5C7.04167 1.5 6.13542 1.6875 5.28125 2.0625C4.42708 2.41667 3.67708 2.91667 3.03125 3.5625C2.40625 4.1875 1.91667 4.92708 1.5625 5.78125C1.1875 6.63542 1 7.54167 1 8.5C1 9.45833 1.1875 10.3646 1.5625 11.2188C1.91667 12.0729 2.40625 12.8229 3.03125 13.4688C3.67708 14.0938 4.42708 14.5833 5.28125 14.9375C6.13542 15.3125 7.04167 15.5 8 15.5ZM11.5625 11.3125C11.6667 11.4167 11.7188 11.5417 11.7188 11.6875C11.7188 11.8333 11.6667 11.9583 11.5625 12.0625C11.5208 12.125 11.4688 12.1667 11.4062 12.1875C11.3438 12.2083 11.2708 12.2188 11.1875 12.2188C11.125 12.2188 11.0625 12.2083 11 12.1875C10.9375 12.1667 10.875 12.125 10.8125 12.0625L7.5 8.71875V2.625C7.5 2.47917 7.54167 2.36458 7.625 2.28125C7.72917 2.17708 7.85417 2.125 8 2.125C8.14583 2.125 8.26042 2.17708 8.34375 2.28125C8.44792 2.36458 8.5 2.47917 8.5 2.625V8.25L11.5625 11.3125Z" fill="#999999"/>
</svg>
