<svg width="12" height="12" viewBox="0 0 12 12" fill="none" xmlns="http://www.w3.org/2000/svg">
<path d="M11.7917 10.875C11.9306 10.9861 12 11.1389 12 11.3333C12 11.5278 11.9306 11.6806 11.7917 11.7917C11.7361 11.875 11.6667 11.9306 11.5833 11.9583C11.5 11.9861 11.4167 12 11.3333 12C11.25 12 11.1667 11.9861 11.0833 11.9583C11 11.9306 10.9306 11.875 10.875 11.7917L6 6.95833L1.125 11.7917C1.06944 11.875 1 11.9306 0.916667 11.9583C0.833333 11.9861 0.75 12 0.666667 12C0.583333 12 0.5 11.9861 0.416667 11.9583C0.333333 11.9306 0.263889 11.875 0.208333 11.7917C0.0694444 11.6806 0 11.5278 0 11.3333C0 11.1389 0.0694444 10.9861 0.208333 10.875L5.04167 6L0.208333 1.125C0.0694444 1.01389 0 0.861111 0 0.666667C0 0.472222 0.0694444 0.319444 0.208333 0.208333C0.319444 0.0694444 0.472222 0 0.666667 0C0.861111 0 1.01389 0.0694444 1.125 0.208333L6 5.04167L10.875 0.208333C10.9861 0.0694444 11.1389 0 11.3333 0C11.5278 0 11.6806 0.0694444 11.7917 0.208333C11.9306 0.319444 12 0.472222 12 0.666667C12 0.861111 11.9306 1.01389 11.7917 1.125L6.95833 6L11.7917 10.875Z" fill="white"/>
</svg>
