<svg width="16" height="15" viewBox="0 0 16 15" fill="none" xmlns="http://www.w3.org/2000/svg">
<path d="M10.3125 5.1875C11.3958 5.20833 12.6146 5.25 13.9688 5.3125C15.3229 5.35417 16 6.02083 16 7.3125V7.5625C15.9375 8.58333 15.7917 9.54167 15.5625 10.4375C15.3125 11.3542 14.9896 12.1458 14.5938 12.8125C14.1979 13.4792 13.7396 14.0104 13.2188 14.4062C12.6771 14.8021 12.0938 15 11.4688 15H11.375C10.0625 14.9375 8.77083 14.8333 7.5 14.6875C6.25 14.5417 5.08333 14.3542 4 14.125V4.65625C5.54167 3.92708 6.59375 3.01042 7.15625 1.90625C7.71875 0.78125 8.5 0.21875 9.5 0.21875C9.625 0.21875 9.73958 0.229167 9.84375 0.25C10.3646 0.3125 10.6875 0.65625 10.8125 1.28125C10.9583 1.90625 11.0312 2.35417 11.0312 2.625C11.0312 3.41667 10.7917 4.27083 10.3125 5.1875ZM0 14V5H3V14H0Z" fill="#298E3C"/>
</svg>
