<svg width="24" height="24" viewBox="0 0 24 24" fill="none" xmlns="http://www.w3.org/2000/svg">
<path d="M14.4844 10.8438C15.9531 12.25 17.3438 13.75 18.6562 15.3438C19.9688 16.9375 21.1719 18.5938 22.2656 20.3125C21.7656 19.6562 21.2031 19.0156 20.5781 18.3906C19.9531 17.7344 19.2656 17.125 18.5156 16.5625C16.6719 15.0938 14.7812 13.6875 12.8438 12.3438C11.0312 14.125 8.85938 16.125 6.32812 18.3438C5.17188 19.4375 4.20312 19.9844 3.42188 19.9844C3.29688 19.9844 3.17188 19.9688 3.04688 19.9375C2.79688 19.6875 2.67188 19.3594 2.67188 18.9531C2.67188 18.5156 2.84375 17.9844 3.1875 17.3594C3.6875 16.7031 4.20312 16.0938 4.73438 15.5312C5.29688 14.9375 5.875 14.375 6.46875 13.8438C7.0625 13.3125 7.67188 12.7969 8.29688 12.2969C8.92188 11.7656 9.5625 11.25 10.2188 10.75C8.5625 9.5625 6.54688 8.15625 4.17188 6.53125C3.79688 6.3125 3.48438 6.01562 3.23438 5.64062C3.01562 5.26562 2.90625 4.84375 2.90625 4.375V4.14062C2.90625 4.07813 2.92188 4.01562 2.95312 3.95312C3.17188 3.67188 3.5 3.53125 3.9375 3.53125C4.59375 3.53125 5.5 3.875 6.65625 4.5625C7.78125 5.375 8.85938 6.15625 9.89062 6.90625C10.9219 7.65625 11.8594 8.40625 12.7031 9.15625C14.0781 8.28125 15.5625 7.39062 17.1562 6.48438C18.75 5.57813 20.3906 4.6875 22.0781 3.8125C21.7344 4.125 21.2812 4.51562 20.7188 4.98438C20.1875 5.42187 19.6406 5.89062 19.0781 6.39062C17.5156 7.89062 15.9844 9.375 14.4844 10.8438Z" fill="#C2140A"/>
</svg>
