<svg width="12" height="16" viewBox="0 0 12 16" fill="none" xmlns="http://www.w3.org/2000/svg">
<path d="M2 14C1.97917 14 1.94792 14.0104 1.90625 14.0312C1.88542 14.0312 1.85417 14.0312 1.8125 14.0312C1.625 14.0312 1.45833 13.9792 1.3125 13.875C1.16667 13.75 1.0625 13.6042 1 13.4375V14.4375C1 14.6042 1.05208 14.7396 1.15625 14.8438C1.26042 14.9479 1.39583 15 1.5625 15H11L12 16H2C1.4375 16 0.958333 15.8021 0.5625 15.4062C0.1875 15.0312 0 14.5625 0 14V1.5625C0 1.125 0.145833 0.760417 0.4375 0.46875C0.75 0.15625 1.125 0 1.5625 0H10.4688C10.9062 0 11.2708 0.145833 11.5625 0.4375C11.8542 0.729167 12 1.09375 12 1.53125V12C12 12.5625 11.8021 13.0417 11.4062 13.4375C11.0312 13.8125 10.5625 14 10 14H2ZM3 1V6L5 4L7 6V1H3ZM1 12.4375C1 12.6042 1.05208 12.7396 1.15625 12.8438C1.26042 12.9479 1.39583 13 1.5625 13H10C10.2708 13 10.5 12.9062 10.6875 12.7188C10.8958 12.5104 11 12.2708 11 12V1.71875C11 1.51042 10.9271 1.34375 10.7812 1.21875C10.6562 1.07292 10.4896 1 10.2812 1H8V8L5 5L2 8V1H1.5625C1.39583 1 1.26042 1.05208 1.15625 1.15625C1.05208 1.26042 1 1.39583 1 1.5625V12.4375Z" fill="#656C87"/>
</svg>
