<svg width="12" height="12" viewBox="0 0 12 12" fill="none" xmlns="http://www.w3.org/2000/svg">
<path d="M11.3438 11.1562C11.4375 11.25 11.4844 11.375 11.4844 11.5312C11.4844 11.6562 11.4375 11.7656 11.3438 11.8594C11.3125 11.8906 11.2656 11.9219 11.2031 11.9531C11.1406 11.9844 11.0781 12 11.0156 12C10.9531 12 10.8906 11.9844 10.8281 11.9531C10.7969 11.9219 10.7656 11.9062 10.7344 11.9062C10.7031 11.875 10.6719 11.8594 10.6406 11.8594L6 7.21875L1.35938 11.8594H1.3125L1.26562 11.9062C1.23438 11.9062 1.21875 11.9219 1.21875 11.9531H1.17188C1.10938 11.9844 1.04688 12 0.984375 12C0.921875 12 0.859375 11.9844 0.796875 11.9531C0.734375 11.9219 0.6875 11.8906 0.65625 11.8594C0.5625 11.7656 0.515625 11.6562 0.515625 11.5312C0.515625 11.375 0.5625 11.25 0.65625 11.1562L5.29688 6.51562L0.65625 1.875C0.5625 1.75 0.515625 1.625 0.515625 1.5C0.515625 1.375 0.5625 1.25 0.65625 1.125C0.75 1.03125 0.859375 0.984375 0.984375 0.984375C1.14062 0.984375 1.26562 1.03125 1.35938 1.125L6 5.8125L10.6406 1.125C10.7344 1.03125 10.8438 0.984375 10.9688 0.984375C11.125 0.984375 11.25 1.03125 11.3438 1.125C11.4375 1.25 11.4844 1.375 11.4844 1.5C11.4844 1.625 11.4375 1.75 11.3438 1.875L6.70312 6.51562L11.3438 11.1562Z" fill="#CCCCCC"/>
</svg>
