<svg width="16" height="15" viewBox="0 0 16 15" fill="none" xmlns="http://www.w3.org/2000/svg">
<path d="M1 9.03125C0.833333 8.36458 0.90625 7.78125 1.21875 7.28125C1.55208 6.76042 1.98958 6.34375 2.53125 6.03125L2.5 5.5C2.5 4.79167 2.64583 4.10417 2.9375 3.4375C3.25 2.77083 3.65625 2.1875 4.15625 1.6875C4.67708 1.16667 5.27083 0.760417 5.9375 0.46875C6.60417 0.15625 7.29167 0 8 0C8.70833 0 9.39583 0.15625 10.0625 0.46875C10.7292 0.760417 11.3125 1.16667 11.8125 1.6875C12.3333 2.1875 12.7396 2.77083 13.0312 3.4375C13.3438 4.10417 13.5 4.79167 13.5 5.5C13.5 5.58333 13.4896 5.66667 13.4688 5.75C13.4688 5.83333 13.4688 5.92708 13.4688 6.03125C14.0104 6.36458 14.4375 6.78125 14.75 7.28125C15.0833 7.78125 15.1667 8.36458 15 9.03125L14.6875 10.1562C14.5417 10.6979 14.2396 11.1458 13.7812 11.5C13.3438 11.8333 12.8438 12 12.2812 12H10.9375L12.3125 6.71875C12.4375 6.28125 12.5 5.875 12.5 5.5C12.5 4.91667 12.375 4.35417 12.125 3.8125C11.875 3.27083 11.5417 2.79167 11.125 2.375C10.7083 1.95833 10.2292 1.625 9.6875 1.375C9.14583 1.125 8.58333 1 8 1C7.41667 1 6.85417 1.125 6.3125 1.375C5.77083 1.625 5.29167 1.95833 4.875 2.375C4.45833 2.79167 4.125 3.27083 3.875 3.8125C3.625 4.35417 3.5 4.91667 3.5 5.5C3.5 5.77083 3.52083 6.04167 3.5625 6.3125C3.625 6.5625 3.69792 6.8125 3.78125 7.0625C3.78125 7.125 3.79167 7.17708 3.8125 7.21875L5.0625 12H3.71875C3.11458 12 2.60417 11.8333 2.1875 11.5C1.77083 11.1667 1.47917 10.7188 1.3125 10.1562L1 9.03125ZM3.75 11L2.75 7.0625C2.4375 7.22917 2.19792 7.46875 2.03125 7.78125C1.88542 8.09375 1.86458 8.42708 1.96875 8.78125L2.28125 9.90625C2.38542 10.2396 2.57292 10.5104 2.84375 10.7188C3.11458 10.9062 3.41667 11 3.75 11ZM13.7188 9.90625L14.0312 8.78125C14.1354 8.42708 14.1042 8.09375 13.9375 7.78125C13.7917 7.46875 13.5729 7.22917 13.2812 7.0625L12.25 11C12.5833 11 12.8854 10.9062 13.1562 10.7188C13.4479 10.5104 13.6354 10.2396 13.7188 9.90625ZM7.5 15C7.16667 15 6.875 14.9062 6.625 14.7188C6.375 14.5312 6.19792 14.2917 6.09375 14H4V13H6.09375C6.19792 12.7083 6.375 12.4688 6.625 12.2812C6.875 12.0938 7.16667 12 7.5 12H8.5C8.91667 12 9.27083 12.1458 9.5625 12.4375C9.85417 12.7292 10 13.0833 10 13.5C10 13.9167 9.85417 14.2708 9.5625 14.5625C9.27083 14.8542 8.91667 15 8.5 15H7.5ZM8.5 13H7.5C7.16667 13 7 13.1667 7 13.5C7 13.8333 7.16667 14 7.5 14H8.5C8.83333 14 9 13.8333 9 13.5C9 13.1667 8.83333 13 8.5 13Z" fill="#5A49AB"/>
</svg>
