<svg width="18" height="21" viewBox="0 0 18 21" fill="none" xmlns="http://www.w3.org/2000/svg">
<path fill-rule="evenodd" clip-rule="evenodd" d="M12.75 0.5C11.3693 0.5 10.25 1.61929 10.25 3C10.25 4.38071 11.3693 5.5 12.75 5.5C14.1307 5.5 15.25 4.38071 15.25 3C15.25 1.61929 14.1307 0.5 12.75 0.5ZM11.5 3C11.5 3.69036 12.0596 4.25 12.75 4.25C13.4404 4.25 14 3.69036 14 3C14 2.30964 13.4404 1.75 12.75 1.75C12.0596 1.75 11.5 2.30964 11.5 3Z" fill="#9CB1C7"/>
<path d="M17.3649 9.0675C16.9962 7.70251 15.76 6.75 14.355 6.75H11.1438C9.74003 6.75 8.50248 7.70251 8.13498 9.0675L7.75 10.5H9.04501L9.34248 9.39122C9.56123 8.57122 10.3038 8 11.1438 8H14.355C15.1962 8 15.9375 8.57247 16.1562 9.39122L16.455 10.5H17.75L17.3649 9.0675Z" fill="#9CB1C7"/>
<path d="M3.64378 8H7.34625L7.69003 6.75H3.64378C2.23878 6.75 1.00123 7.70251 0.634979 9.0675L0.25 10.5H1.54501L1.84378 9.39122C2.06253 8.57122 2.80253 8 3.64378 8Z" fill="#9CB1C7"/>
<path fill-rule="evenodd" clip-rule="evenodd" d="M1.5 14.72V17.5312C1.5 19.1687 2.83125 20.5 4.46875 20.5H10.875V11.7512H4.46875C2.83125 11.7512 1.5 13.0825 1.5 14.72ZM9.625 19.25H4.46875C3.52125 19.25 2.75 18.4788 2.75 17.5312V14.72C2.75 13.7725 3.52125 13.0012 4.46875 13.0012H9.625V19.25Z" fill="#9CB1C7"/>
<path fill-rule="evenodd" clip-rule="evenodd" d="M13.365 14.1938C12.5488 15.26 12.545 16.7437 13.3575 17.8025L15.755 20.0125H17.75V12.375H15.8725L13.365 14.1938ZM16.5 18.7613H16.375L14.3487 17.0425C13.88 16.43 13.8837 15.5725 14.3562 14.9563L16.5 13.6238V18.7613Z" fill="#9CB1C7"/>
<path fill-rule="evenodd" clip-rule="evenodd" d="M2.75 3C2.75 1.61929 3.86929 0.5 5.25 0.5C6.63071 0.5 7.75 1.61929 7.75 3C7.75 4.38071 6.63071 5.5 5.25 5.5C3.86929 5.5 2.75 4.38071 2.75 3ZM5.25 4.25C4.55964 4.25 4 3.69036 4 3C4 2.30964 4.55964 1.75 5.25 1.75C5.94036 1.75 6.5 2.30964 6.5 3C6.5 3.69036 5.94036 4.25 5.25 4.25Z" fill="#9CB1C7"/>
</svg>
