<svg width="106" height="40" viewBox="0 0 106 40" fill="none" xmlns="http://www.w3.org/2000/svg">
<path d="M22.0664 8.31883L28.5927 6.23883L23.4649 13.2788L22.0664 8.31883Z" fill="#0085F2"/>
<path d="M24.2414 15.9999L22.066 8.31989L6.83789 39.3599L24.2414 15.9999Z" fill="#0085F2"/>
<path d="M24.2399 15.999L0.931641 0.639038L16.7813 25.9191L24.2399 15.999Z" fill="#0085F2"/>
<path d="M34.08 24.57L36.36 24.06C36.87 26.91 39.06 28.35 42.6601 28.35C45.6301 28.35 47.4301 27.36 47.4301 25.8C47.4301 24.27 46.4401 23.61 42.0601 22.89C36.45 21.9899 34.77 20.8499 34.77 18.2999C34.77 15.6899 37.59 13.6499 41.4601 13.6499C45.5101 13.6499 48.8701 15.8699 49.4101 18.8099L47.1301 19.2599C46.5601 17.0999 44.4301 15.7499 41.4601 15.7499C39.03 15.7499 37.2 16.8599 37.2 18.2999C37.2 19.4999 38.25 20.0099 42.5401 20.7299C48.1201 21.6899 49.8901 23.13 49.8901 25.77C49.8901 28.56 46.9801 30.45 42.6601 30.45C40.29 30.45 38.34 29.91 36.78 28.86C35.22 27.81 34.32 26.37 34.08 24.57ZM52.3391 25.74C52.3391 22.98 54.2291 21.6599 58.7891 20.8499C62.8092 20.1299 63.9192 19.6199 63.9192 18.3299C63.9192 16.7999 62.3592 15.8099 59.9292 15.8099C57.1691 15.8099 55.2791 17.2199 54.7991 19.6199L52.4291 19.1099C52.7291 17.4599 53.5391 16.1399 54.8891 15.1499C56.2391 14.1599 57.9191 13.6499 59.9292 13.6499C63.9792 13.6499 66.5592 15.6899 66.5592 18.8399V30H64.1892V27.99H64.1292C63.0492 29.46 60.7392 30.45 58.2191 30.45C54.5291 30.45 52.3391 28.65 52.3391 25.74ZM64.0992 24.45V20.9699H64.0392C63.5892 21.7799 62.4492 22.23 59.8092 22.74C56.1791 23.46 54.8291 24.21 54.8291 25.74C54.8291 27.45 56.0891 28.26 58.7291 28.26C61.5492 28.26 64.0992 26.46 64.0992 24.45ZM72.7716 28.02H72.7116V30H70.3416V8.09986H72.8016V16.1099H72.8616C74.1816 14.5499 76.4016 13.6499 78.8916 13.6499C83.6617 13.6499 87.2617 17.2799 87.2617 22.0499C87.2617 26.97 83.6917 30.45 78.7416 30.45C76.2516 30.45 74.0616 29.55 72.7716 28.02ZM84.8017 22.0499C84.8017 18.2699 82.3716 15.8099 78.7416 15.8099C75.3816 15.8099 72.8016 18.0599 72.8016 20.8499V23.25C72.8016 26.04 75.3516 28.29 78.5916 28.29C82.4016 28.29 84.8017 25.86 84.8017 22.0499ZM94.027 36.75H91.2369L95.377 28.68L88.0269 14.0999H90.8769L96.697 26.04H96.757L102.517 14.0999H105.337L94.027 36.75Z" fill="#333333"/>
</svg>
