<svg width="10" height="10" viewBox="0 0 10 10" fill="none" xmlns="http://www.w3.org/2000/svg">
<path d="M9.34375 8.65625C9.44792 8.73958 9.5 8.85417 9.5 9C9.5 9.14583 9.44792 9.26042 9.34375 9.34375C9.30208 9.40625 9.25 9.44792 9.1875 9.46875C9.125 9.48958 9.0625 9.5 9 9.5C8.9375 9.5 8.875 9.48958 8.8125 9.46875C8.75 9.44792 8.69792 9.40625 8.65625 9.34375L5 5.71875L1.34375 9.34375C1.30208 9.40625 1.25 9.44792 1.1875 9.46875C1.125 9.48958 1.0625 9.5 1 9.5C0.9375 9.5 0.875 9.48958 0.8125 9.46875C0.75 9.44792 0.697917 9.40625 0.65625 9.34375C0.552083 9.26042 0.5 9.14583 0.5 9C0.5 8.85417 0.552083 8.73958 0.65625 8.65625L4.28125 5L0.65625 1.34375C0.552083 1.26042 0.5 1.14583 0.5 1C0.5 0.854167 0.552083 0.739583 0.65625 0.65625C0.739583 0.552083 0.854167 0.5 1 0.5C1.14583 0.5 1.26042 0.552083 1.34375 0.65625L5 4.28125L8.65625 0.65625C8.73958 0.552083 8.85417 0.5 9 0.5C9.14583 0.5 9.26042 0.552083 9.34375 0.65625C9.44792 0.739583 9.5 0.854167 9.5 1C9.5 1.14583 9.44792 1.26042 9.34375 1.34375L5.71875 5L9.34375 8.65625Z" fill="#CCCCCC"/>
</svg>
