<svg width="18" height="18" viewBox="0 0 16 16" fill="none" xmlns="http://www.w3.org/2000/svg">
<path d="M6 2C6 1.45833 6.19792 0.989583 6.59375 0.59375C6.98958 0.197917 7.45833 0 8 0H14C14.5417 0 15.0104 0.197917 15.4062 0.59375C15.8021 0.989583 16 1.45833 16 2V8C16 8.54167 15.8021 9.01042 15.4062 9.40625C15.0104 9.80208 14.5417 10 14 10H11V9H14C14.2917 9 14.5312 8.90625 14.7188 8.71875C14.9062 8.53125 15 8.29167 15 8V2C15 1.70833 14.9062 1.46875 14.7188 1.28125C14.5312 1.09375 14.2917 1 14 1H8C7.70833 1 7.46875 1.09375 7.28125 1.28125C7.09375 1.46875 7 1.70833 7 2V5H6V2ZM10.1562 5.59375C9.96875 5.42708 9.76042 5.29167 9.53125 5.1875C9.32292 5.08333 9.09375 5 8.84375 4.9375L9.34375 4.4375L10.5312 5.59375L13.3125 2.8125L14.1562 3.6875L11.0625 6.75C10.9583 6.52083 10.8333 6.3125 10.6875 6.125C10.5417 5.9375 10.3646 5.76042 10.1562 5.59375ZM2 16C1.45833 16 0.989583 15.8021 0.59375 15.4062C0.197917 15.0104 0 14.5417 0 14V8C0 7.45833 0.197917 6.98958 0.59375 6.59375C0.989583 6.19792 1.45833 6 2 6H8C8.54167 6 9.01042 6.19792 9.40625 6.59375C9.80208 6.98958 10 7.45833 10 8V14C10 14.5417 9.80208 15.0104 9.40625 15.4062C9.01042 15.8021 8.54167 16 8 16H2ZM1 14C1 14.2917 1.09375 14.5312 1.28125 14.7188C1.46875 14.9062 1.70833 15 2 15H8C8.29167 15 8.53125 14.9062 8.71875 14.7188C8.90625 14.5312 9 14.2917 9 14V8C9 7.70833 8.90625 7.46875 8.71875 7.28125C8.53125 7.09375 8.29167 7 8 7H2C1.70833 7 1.46875 7.09375 1.28125 7.28125C1.09375 7.46875 1 7.70833 1 8V14ZM2.15625 11.4375L3.03125 10.625L4.1875 11.7812L6.96875 9L7.84375 9.875L4.1875 13.4688L2.15625 11.4375Z" fill="#656C87"/>
</svg>
