<svg width="10" height="15" viewBox="0 0 10 15" fill="none" xmlns="http://www.w3.org/2000/svg">
<path d="M9.4375 1C9.33333 2 9.09375 3.04167 8.71875 4.125C8.34375 5.1875 7.66667 6.08333 6.6875 6.8125L6.3125 7.09375C7.5 7.82292 8.30208 8.90625 8.71875 10.3438C9.13542 11.7812 9.375 13 9.4375 14H10V15H0V14H0.5625C0.645833 13 0.895833 11.7917 1.3125 10.375C1.72917 8.9375 2.52083 7.85417 3.6875 7.125L3.3125 6.84375C2.29167 6.11458 1.59375 5.20833 1.21875 4.125C0.864583 3.04167 0.645833 2 0.5625 1H0V0H10V1H9.4375ZM5 3.53125C5.33333 3.53125 5.61458 3.92708 5.84375 4.71875C6.09375 5.51042 6.21875 5.90625 6.21875 5.90625C6.98958 5.30208 7.53125 4.45833 7.84375 3.375C8.15625 2.29167 8.35417 1.5 8.4375 1H1.5625C1.64583 1.5 1.84375 2.29167 2.15625 3.375C2.46875 4.45833 3.01042 5.30208 3.78125 5.90625C3.80208 5.86458 3.92708 5.46875 4.15625 4.71875C4.38542 3.92708 4.66667 3.53125 5 3.53125ZM8.4375 14C8.35417 13 8.08333 11.7708 7.625 10.3125C7.1875 8.83333 6.3125 7.90625 5 7.53125C3.70833 7.90625 2.83333 8.83333 2.375 10.3125C1.91667 11.7708 1.64583 13 1.5625 14H2C2 14 2.36458 13.5 3.09375 12.5C3.84375 11.5 4.47917 11 5 11C5.52083 11 6.14583 11.5 6.875 12.5C7.625 13.5 8 14 8 14H8.4375Z" fill="#666666"/>
</svg>
