<svg width="17" height="17" viewBox="0 0 24 25" fill="none" xmlns="http://www.w3.org/2000/svg">
<path d="M5.14294 20.5573V4.44276C5.14294 4.15872 5.3732 3.92847 5.65724 3.92847H15.6444C15.7808 3.92847 15.9116 3.98265 16.008 4.0791L18.7068 6.77788C18.8033 6.87434 18.8575 7.00515 18.8575 7.14154V20.5573C18.8575 20.8414 18.6272 21.0716 18.3432 21.0716H5.65724C5.3732 21.0716 5.14294 20.8414 5.14294 20.5573Z" stroke="#656C87" stroke-linecap="round" stroke-linejoin="round"/>
<path d="M15.429 6.8428V4.23151C15.429 4.06415 15.5646 3.92847 15.732 3.92847C15.8124 3.92847 15.8894 3.9604 15.9463 4.01723L18.7688 6.83976C18.8257 6.89659 18.8576 6.97367 18.8576 7.05405C18.8576 7.22141 18.7219 7.35709 18.5545 7.35709H15.9432C15.6592 7.35709 15.429 7.12684 15.429 6.8428Z" fill="#656C87" stroke="#656C87" stroke-linecap="round" stroke-linejoin="round"/>
<path d="M8.57104 10.7856H15.4283" stroke="#656C87" stroke-linecap="round" stroke-linejoin="round"/>
<path d="M8.57104 17.6431H15.4283" stroke="#656C87" stroke-linecap="round" stroke-linejoin="round"/>
<path d="M8.57104 14.2144H11.9997" stroke="#656C87" stroke-linecap="round" stroke-linejoin="round"/>
</svg>
