<svg width="18" height="21" viewBox="0 0 16 16" fill="none" xmlns="http://www.w3.org/2000/svg">
<path d="M16 15.1258V16H9.44533L8.01333 13.2747L9.66533 12.4886L8.01333 11.7025L6.36267 12.4886L8.01333 13.2747L6.58267 16H0V15.8051C0.024 15.5022 0.0546667 14.9003 0.0853333 14.7241C0.129333 14.4572 0.56 13.7165 1.152 13.3441C1.896 12.877 2.96933 12.6688 3.78933 12.3512C4.772 11.9615 5.44933 11.6585 5.82133 11.2541C6.19333 10.8497 6.38 10.388 6.38133 9.68194C6.38133 9.2522 6.27067 8.92922 6.04933 8.82112C5.828 8.71301 5.64933 8.23122 5.516 7.45314C5.452 7.12571 5.32533 6.98024 5.136 7.01672C4.94667 7.0532 4.82578 6.70398 4.77333 5.96905C4.76882 5.83224 4.79255 5.69598 4.84302 5.56876C4.89349 5.44155 4.96962 5.32611 5.06667 5.22968C4.95733 4.54368 4.88667 4.03164 4.85467 3.69354C4.85173 3.42 4.87901 3.14697 4.936 2.87942C5.02138 2.52256 5.17535 2.18576 5.38933 1.88781C5.64832 1.53562 5.98329 1.24641 6.36933 1.04166C6.78711 0.80944 7.33511 0.693329 8.01333 0.693329C8.69156 0.693329 9.24222 0.80944 9.66533 1.04166C10.0481 1.24445 10.3803 1.53091 10.6373 1.8798C10.853 2.17893 11.0075 2.51773 11.092 2.87675C11.1492 3.14469 11.1761 3.41824 11.172 3.6922C11.1387 4.02852 11.0693 4.54235 10.9613 5.22834C11.0578 5.3248 11.1334 5.44011 11.1834 5.56709C11.2334 5.69406 11.2568 5.82998 11.252 5.96638C11.1987 6.70131 11.076 7.05053 10.884 7.01405C10.692 6.97802 10.5707 7.12349 10.5187 7.45314C10.3853 8.23122 10.2133 8.71435 9.99333 8.82112C9.77333 8.92789 9.66133 9.25086 9.66133 9.68061C9.66133 10.388 9.848 10.8497 10.2213 11.2541C10.5947 11.6585 11.2667 11.9468 12.24 12.3352C13.06 12.6528 14.1347 12.869 14.8773 13.3428C15.3644 13.684 15.7364 14.1652 15.944 14.7228C15.9734 14.8554 15.9922 14.9902 16 15.1258Z" fill="#E4E4E4"/>
</svg>
