<svg width="16" height="14" viewBox="0 0 16 14" fill="none" xmlns="http://www.w3.org/2000/svg">
<path d="M13.5 13L13.1562 11.75C13.1146 11.5208 13 11.3438 12.8125 11.2188C12.625 11.0729 12.4271 11 12.2188 11H7.78125C7.57292 11 7.375 11.0729 7.1875 11.2188C7 11.3438 6.88542 11.5208 6.84375 11.75L6.5 13H13.5ZM11 7C11 6.72917 10.8958 6.5 10.6875 6.3125C10.5 6.10417 10.2708 6 10 6C9.72917 6 9.48958 6.10417 9.28125 6.3125C9.09375 6.5 9 6.72917 9 7C9 7.27083 9.09375 7.51042 9.28125 7.71875C9.48958 7.90625 9.72917 8 10 8C10.2708 8 10.5 7.90625 10.6875 7.71875C10.8958 7.51042 11 7.27083 11 7ZM2.15625 11.9688L5.0625 10.7812C5.02083 10.8438 4.98958 10.9167 4.96875 11C4.94792 11.0625 4.92708 11.1354 4.90625 11.2188L4.6875 12L0.3125 13.8125L2.21875 9.21875C1.82292 8.71875 1.52083 8.19792 1.3125 7.65625C1.10417 7.09375 1 6.52083 1 5.9375C1 5.125 1.19792 4.35417 1.59375 3.625C1.98958 2.91667 2.52083 2.29167 3.1875 1.75C3.875 1.20833 4.67708 0.78125 5.59375 0.46875C6.48958 0.15625 7.45833 0 8.5 0C9.54167 0 10.5104 0.15625 11.4062 0.46875C12.3229 0.78125 13.1146 1.20833 13.7812 1.75C14.4688 2.29167 15.0104 2.91667 15.4062 3.625C15.8021 4.35417 16 5.125 16 5.9375C16 6.66667 15.8333 7.36458 15.5 8.03125C15.1875 8.67708 14.7604 9.26042 14.2188 9.78125C14.0938 9.67708 13.9583 9.58333 13.8125 9.5C13.6667 9.39583 13.5104 9.30208 13.3438 9.21875C13.8646 8.78125 14.2708 8.29167 14.5625 7.75C14.8542 7.1875 15 6.58333 15 5.9375C15 4.58333 14.3646 3.42708 13.0938 2.46875C11.8229 1.48958 10.2917 1 8.5 1C6.70833 1 5.17708 1.48958 3.90625 2.46875C2.63542 3.42708 2 4.58333 2 5.9375C2 6.4375 2.09375 6.9375 2.28125 7.4375C2.48958 7.91667 2.79167 8.36458 3.1875 8.78125L3.40625 9L2.15625 11.9688ZM12.2188 10C12.6562 10 13.0521 10.1354 13.4062 10.4062C13.7812 10.6771 14.0208 11.0312 14.125 11.4688L14.8125 14H5.1875L5.875 11.4688C5.97917 11.0312 6.20833 10.6771 6.5625 10.4062C6.9375 10.1354 7.34375 10 7.78125 10H12.2188ZM8 7C8 6.4375 8.19792 5.96875 8.59375 5.59375C8.98958 5.19792 9.45833 5 10 5C10.5417 5 11.0104 5.19792 11.4062 5.59375C11.8021 5.96875 12 6.4375 12 7C12 7.54167 11.8021 8.01042 11.4062 8.40625C11.0104 8.80208 10.5417 9 10 9C9.45833 9 8.98958 8.80208 8.59375 8.40625C8.19792 8.01042 8 7.54167 8 7Z" fill="#656C87"/>
</svg>
