<svg width="16" height="16" viewBox="0 0 16 16" fill="none" xmlns="http://www.w3.org/2000/svg">
<path d="M15 11C15.2292 11 15.3646 11.0833 15.4062 11.25C15.4688 11.4167 15.5 11.625 15.5 11.875V15C15.5 15.2292 15.4167 15.3646 15.25 15.4062C15.0833 15.4688 14.875 15.5 14.625 15.5H10.375C10.125 15.5 9.91667 15.4688 9.75 15.4062C9.58333 15.3646 9.5 15.2292 9.5 15V11.875C9.5 11.625 9.52083 11.4167 9.5625 11.25C9.625 11.0833 9.77083 11 10 11H10.5V10.2812C10.5 9.59375 10.6771 9.125 11.0312 8.875C11.4062 8.625 11.8958 8.5 12.5 8.5C13.1042 8.5 13.5833 8.625 13.9375 8.875C14.3125 9.125 14.5 9.59375 14.5 10.2812V11H15ZM13.5 11V10.2812C13.5 10.0104 13.4583 9.79167 13.375 9.625C13.2917 9.45833 13 9.375 12.5 9.375C11.9792 9.375 11.6771 9.47917 11.5938 9.6875C11.5312 9.875 11.5 10.0729 11.5 10.2812V11H13.5ZM13 12.7188C13 12.7188 13 12.7083 13 12.6875V12.5625C13 12.5625 13 12.5521 13 12.5312V12.5C13 12.3333 12.9583 12.2083 12.875 12.125C12.7917 12.0417 12.6667 12 12.5 12C12.3333 12 12.2083 12.0417 12.125 12.125C12.0417 12.2083 12 12.3333 12 12.5V14C12 14.25 12.0625 14.3958 12.1875 14.4375C12.3125 14.4792 12.4167 14.5 12.5 14.5C12.5833 14.5 12.6875 14.4792 12.8125 14.4375C12.9375 14.3958 13 14.2708 13 14.0625V13.4062V13.3438C13 13.3438 13 13.3333 13 13.3125V13.2812C13 13.2812 13 13.2708 13 13.25V13.0938C13 13.0938 13 13.0833 13 13.0625V12.9688C13 12.9688 13 12.9583 13 12.9375V12.8438C13 12.8438 13 12.8333 13 12.8125V12.7188ZM0.5 14.25V14.2188V13.75C0.5 13.4792 0.791667 13.1667 1.375 12.8125C1.97917 12.4583 2.77083 12.0938 3.75 11.7188C4.72917 11.3438 5.40625 10.9688 5.78125 10.5938C6.15625 10.1979 6.34375 9.65625 6.34375 8.96875C6.34375 8.57292 6.22917 8.32292 6 8.21875C5.79167 8.11458 5.625 7.6875 5.5 6.9375C5.4375 6.66667 5.33333 6.53125 5.1875 6.53125H5.15625H5.125H5.0625C4.89583 6.53125 4.79167 6.19792 4.75 5.53125C4.75 5.23958 4.80208 5.04167 4.90625 4.9375L5.03125 4.8125C5.03125 4.8125 5 4.65625 4.9375 4.34375C4.89583 4.01042 4.86458 3.67708 4.84375 3.34375V3.21875C4.84375 2.84375 5.03125 2.30208 5.40625 1.59375C5.78125 0.864583 6.64583 0.5 8 0.5C9.375 0.5 10.2396 0.854167 10.5938 1.5625C10.9688 2.27083 11.1562 2.82292 11.1562 3.21875V3.34375C11.1354 3.67708 11.0938 4.01042 11.0312 4.34375C10.9896 4.65625 10.9688 4.8125 10.9688 4.8125C10.9688 4.8125 11.0104 4.86458 11.0938 4.96875C11.1979 5.07292 11.25 5.26042 11.25 5.53125C11.2083 6.21875 11.0938 6.5625 10.9062 6.5625C10.9062 6.5625 10.8958 6.5625 10.875 6.5625C10.875 6.54167 10.8646 6.53125 10.8438 6.53125C10.6771 6.53125 10.5625 6.67708 10.5 6.96875C10.375 7.71875 10.1979 8.14583 9.96875 8.25C9.76042 8.35417 9.65625 8.61458 9.65625 9.03125C9.65625 9.19792 9.65625 9.32292 9.65625 9.40625C9.67708 9.48958 9.6875 9.54167 9.6875 9.5625C9.6875 9.6875 9.625 9.83333 9.5 10V10.5C9 10.5 8.70833 10.6667 8.625 11C8.54167 11.3333 8.5 11.5 8.5 11.5V15.5H0.5V15.4375V15.375V14.7812V14.625V14.4688V14.25Z" fill="#656C87"/>
</svg>
