<svg width="32" height="33" viewBox="0 0 32 33" fill="none" xmlns="http://www.w3.org/2000/svg">
<rect y="0.5" width="32" height="32" rx="16" fill="#161E34"/>
<path d="M21.2969 12.4844L21.7656 14.0781L11.2188 28C11.4062 27.6875 11.9219 26.7031 12.7656 25.0469C12.7969 24.9531 12.8438 24.8594 12.9062 24.7656L13 24.5781C13 24.5469 13.0156 24.5156 13.0469 24.4844L13.1406 24.25C13.1406 24.2188 13.1562 24.1875 13.1875 24.1562L13.2812 23.9688C13.625 23.3125 13.9531 22.6406 14.2656 21.9531L14.4531 21.625C14.7969 20.9375 15.1406 20.2344 15.4844 19.5156L15.625 19.3281C15.625 19.2969 15.6406 19.2656 15.6719 19.2344L15.7656 19C15.7969 18.9688 15.8125 18.9375 15.8125 18.9062L15.9531 18.6719C15.9844 18.5781 16.0312 18.4688 16.0938 18.3438L7.5625 4.89062L19.0469 12.2969C19.4531 11.4531 19.9219 10.5156 20.4531 9.48438L24.4375 8.26562L21.2969 12.4844ZM11.2188 28.0469C11.2188 28.0469 11.2031 28.0625 11.1719 28.0938L11.2188 28V28.0469Z" fill="#71D186"/>
</svg>
