<svg width="51" height="28" viewBox="0 0 51 28" fill="none" xmlns="http://www.w3.org/2000/svg">
<path d="M0.756 17.199L2.352 16.842C2.709 18.837 4.242 19.845 6.762 19.845C8.841 19.845 10.101 19.152 10.101 18.06C10.101 16.989 9.408 16.527 6.342 16.023C2.415 15.393 1.239 14.595 1.239 12.81C1.239 10.983 3.213 9.555 5.922 9.555C8.757 9.555 11.109 11.109 11.487 13.167L9.891 13.482C9.492 11.97 8.001 11.025 5.922 11.025C4.221 11.025 2.94 11.802 2.94 12.81C2.94 13.65 3.675 14.007 6.678 14.511C10.584 15.183 11.823 16.191 11.823 18.039C11.823 19.992 9.786 21.315 6.762 21.315C5.103 21.315 3.738 20.937 2.646 20.202C1.554 19.467 0.924 18.459 0.756 17.199ZM13.5373 18.018C13.5373 16.086 14.8603 15.162 18.0523 14.595C20.8663 14.091 21.6433 13.734 21.6433 12.831C21.6433 11.76 20.5513 11.067 18.8503 11.067C16.9183 11.067 15.5953 12.054 15.2593 13.734L13.6003 13.377C13.8103 12.222 14.3773 11.298 15.3223 10.605C16.2673 9.912 17.4433 9.555 18.8503 9.555C21.6853 9.555 23.4913 10.983 23.4913 13.188V21H21.8323V19.593H21.7903C21.0343 20.622 19.4173 21.315 17.6533 21.315C15.0703 21.315 13.5373 20.055 13.5373 18.018ZM21.7693 17.115V14.679H21.7273C21.4123 15.246 20.6143 15.561 18.7663 15.918C16.2253 16.422 15.2803 16.947 15.2803 18.018C15.2803 19.215 16.1623 19.782 18.0103 19.782C19.9843 19.782 21.7693 18.522 21.7693 17.115ZM27.8399 19.614H27.7979V21H26.1389V5.67H27.8609V11.277H27.9029C28.8269 10.185 30.3809 9.555 32.1239 9.555C35.4629 9.555 37.9829 12.096 37.9829 15.435C37.9829 18.879 35.4839 21.315 32.0189 21.315C30.2759 21.315 28.7429 20.685 27.8399 19.614ZM36.2609 15.435C36.2609 12.789 34.5599 11.067 32.0189 11.067C29.6669 11.067 27.8609 12.642 27.8609 14.595V16.275C27.8609 18.228 29.6459 19.803 31.9139 19.803C34.5809 19.803 36.2609 18.102 36.2609 15.435ZM42.7186 25.725H40.7656L43.6636 20.076L38.5186 9.87H40.5136L44.5876 18.228H44.6296L48.6616 9.87H50.6356L42.7186 25.725Z" fill="#E9EBEC"/>
</svg>
