<svg width="20" height="20" viewBox="0 0 20 20" fill="none" xmlns="http://www.w3.org/2000/svg">
<path d="M10.0977 12.0078C10.6315 11.9948 11.0872 11.793 11.4648 11.4023C11.8555 11.0117 12.0508 10.5495 12.0508 10.0156V9.99609C12.0508 9.44922 11.8555 8.98047 11.4648 8.58984C11.0742 8.19922 10.6055 8.00391 10.0586 8.00391C9.4987 8.00391 9.02344 8.19922 8.63281 8.58984C8.24219 8.98047 8.04688 9.44922 8.04688 9.99609C8.04688 10.556 8.24219 11.0312 8.63281 11.4219C9.02344 11.8125 9.4987 12.0078 10.0586 12.0078H10.0977ZM10.0977 7.00781C10.918 7.00781 11.6146 7.30078 12.1875 7.88672C12.7604 8.47266 13.0469 9.17578 13.0469 9.99609V10.0352C13.0339 10.8555 12.7344 11.5586 12.1484 12.1445C11.5755 12.7174 10.8789 13.0039 10.0586 13.0039C9.22526 13.0039 8.51562 12.7109 7.92969 12.125C7.34375 11.5391 7.05078 10.8294 7.05078 9.99609C7.05078 9.17578 7.34375 8.47266 7.92969 7.88672C8.51562 7.30078 9.22526 7.00781 10.0586 7.00781H10.0977ZM19.4336 13.4141L19.3359 13.6875L19.2969 13.7461C19.1276 14.1758 18.9258 14.5924 18.6914 14.9961C18.4701 15.3867 18.2227 15.7578 17.9492 16.1094L17.7539 16.3438L15.1758 15.9922H14.9219C14.5052 15.9922 14.1276 16.1094 13.7891 16.3438C13.4505 16.5781 13.2096 16.8776 13.0664 17.2422L11.9922 19.8008L11.7383 19.8594L11.7969 19.8398C11.5104 19.8919 11.2174 19.931 10.918 19.957C10.6185 19.9831 10.3125 19.9961 10 19.9961H9.94141C9.64193 19.9961 9.34896 19.9831 9.0625 19.957C8.78906 19.931 8.52214 19.8984 8.26172 19.8594L8.00781 19.8008L6.99219 17.2812C6.83594 16.9297 6.59505 16.6432 6.26953 16.4219C5.94401 16.1875 5.57292 16.0703 5.15625 16.0703H4.96094L2.69531 16.3828L2.55859 15.3867L4.84375 15.0938H4.82422C4.88932 15.0807 4.95443 15.0742 5.01953 15.0742C5.09766 15.0612 5.16927 15.0547 5.23438 15.0547C5.85938 15.0547 6.41927 15.2305 6.91406 15.582C7.40885 15.9206 7.77344 16.3568 8.00781 16.8906L8.76953 18.8633H8.73047C8.9388 18.8893 9.14714 18.9154 9.35547 18.9414C9.57682 18.9544 9.79818 18.9609 10.0195 18.9609C10.2409 18.9609 10.4557 18.9544 10.6641 18.9414C10.8854 18.9154 11.0938 18.8893 11.2891 18.8633L12.1289 16.8711V16.8516C12.3503 16.3177 12.7083 15.8815 13.2031 15.543C13.7109 15.1914 14.2773 15.0156 14.9023 15.0156C14.9674 15.0156 15.0326 15.0221 15.0977 15.0352C15.1628 15.0352 15.2214 15.0352 15.2734 15.0352L17.2852 15.3086C17.4674 15.0482 17.6432 14.7812 17.8125 14.5078C17.9818 14.2214 18.138 13.9219 18.2812 13.6094L17.0508 12.0078H17.0703C16.875 11.7604 16.7188 11.4805 16.6016 11.168C16.4974 10.8555 16.4453 10.5234 16.4453 10.1719C16.4453 9.83333 16.4974 9.50781 16.6016 9.19531C16.7188 8.88281 16.8685 8.60286 17.0508 8.35547L18.5547 6.38281L19.3555 7.00781L17.8516 8.96094H17.8711C17.7409 9.13021 17.6367 9.31901 17.5586 9.52734C17.4805 9.73568 17.4414 9.95052 17.4414 10.1719C17.4414 10.4062 17.4805 10.6276 17.5586 10.8359C17.6367 11.0443 17.7344 11.2266 17.8516 11.3828L19.4336 13.4141ZM3.04688 8.39453C3.24219 8.64193 3.39193 8.92188 3.49609 9.23438C3.61328 9.54688 3.67188 9.87891 3.67188 10.2305C3.67188 10.569 3.61328 10.8945 3.49609 11.207C3.39193 11.5195 3.2487 11.7995 3.06641 12.0469L1.64062 13.8828L0.859375 13.2773L2.24609 11.4219V11.4414C2.3763 11.2721 2.47396 11.0833 2.53906 10.875C2.61719 10.6667 2.65625 10.4453 2.65625 10.2109C2.65625 9.98958 2.61719 9.77474 2.53906 9.56641C2.47396 9.35807 2.3763 9.16927 2.24609 9L0.566406 6.8125L0.683594 6.48047C0.878906 5.94661 1.11328 5.44531 1.38672 4.97656C1.67318 4.49479 1.99219 4.04557 2.34375 3.62891L2.53906 3.41406L5.23438 3.76562C5.27344 3.76562 5.3125 3.76562 5.35156 3.76562C5.39062 3.77865 5.4362 3.78516 5.48828 3.78516C5.89193 3.78516 6.25651 3.66797 6.58203 3.43359C6.92057 3.19922 7.16797 2.89974 7.32422 2.53516L8.32031 0.152344H8.55469C8.78906 0.126302 9.02995 0.106771 9.27734 0.09375C9.52474 0.0677083 9.77214 0.0546875 10.0195 0.0546875C10.2669 0.0546875 10.5078 0.0611979 10.7422 0.0742188C10.9766 0.0872396 11.2044 0.113281 11.4258 0.152344H11.6992L12.6953 2.55469C12.8516 2.91927 13.0924 3.21224 13.418 3.43359C13.7565 3.65495 14.1276 3.76562 14.5312 3.76562H14.6875C14.7266 3.76562 14.7656 3.75911 14.8047 3.74609L17.2656 3.43359L17.4023 4.42969L14.9219 4.76172H14.9414C14.8763 4.77474 14.8112 4.78125 14.7461 4.78125H14.5312C13.9193 4.78125 13.3594 4.61198 12.8516 4.27344C12.3568 3.9349 11.9987 3.49219 11.7773 2.94531L10.9961 1.07031H11.0156C10.9766 1.07031 10.9245 1.0638 10.8594 1.05078H10.6641L10.6445 1.03125H10.5273C10.3581 1.01823 10.1823 1.01172 10 1.01172C9.81771 1.01172 9.64193 1.01823 9.47266 1.03125C9.30339 1.04427 9.14714 1.05729 9.00391 1.07031L8.26172 2.92578V2.94531C8.02734 3.47917 7.66276 3.91536 7.16797 4.25391C6.67318 4.59245 6.11328 4.76172 5.48828 4.76172H5.3125C5.26042 4.76172 5.20833 4.75521 5.15625 4.74219L3.00781 4.46875V4.44922C2.7474 4.77474 2.50651 5.11979 2.28516 5.48438C2.0638 5.83594 1.86849 6.22005 1.69922 6.63672L3.04688 8.39453Z" fill="#9CB1C7"/>
</svg>
