<svg width="18" height="21" viewBox="0 0 18 21" fill="none" xmlns="http://www.w3.org/2000/svg">
<path fill-rule="evenodd" clip-rule="evenodd" d="M14.0069 1.75H5.25251V5.5L1.50063 5.5V19.25H14.0069V13.3921L15.2575 12.1421V19.875C15.2575 20.2202 14.9776 20.5 14.6322 20.5H0.875315C0.529963 20.5 0.25 20.2202 0.25 19.875V4.50888C0.25 4.34312 0.315881 4.18415 0.43315 4.06694L3.81873 0.683058C3.936 0.565848 4.09506 0.5 4.2609 0.5H14.6322C14.9776 0.5 15.2575 0.779822 15.2575 1.125V3.30331L14.0069 4.55331V1.75ZM2.01866 4.25H4.00189V2.26777L2.01866 4.25Z" fill="#9CB1C7"/>
<path d="M7.75377 9.25V8H2.75126V9.25H7.75377Z" fill="#9CB1C7"/>
<path d="M2.75126 10.5H6.50314V11.75H2.75126V10.5Z" fill="#9CB1C7"/>
<path d="M5.25251 14.25V13H2.75126V14.25H5.25251Z" fill="#9CB1C7"/>
<path fill-rule="evenodd" clip-rule="evenodd" d="M9.42475 15.7405L17.3837 7.78553C17.8721 7.29738 17.8721 6.50592 17.3837 6.01777L16.4994 5.13388C16.011 4.64573 15.2191 4.64573 14.7307 5.13388L6.77177 13.0888L6.01382 16.1191C5.95658 16.348 6.16399 16.5553 6.39297 16.498L9.42475 15.7405ZM16.6762 6.72487L15.7919 5.84099C15.6942 5.74336 15.5359 5.74336 15.4382 5.84099L7.67518 13.6001L7.2625 15.25L8.91324 14.8375L16.6762 7.07843C16.7739 6.9808 16.7739 6.8225 16.6762 6.72487Z" fill="#9CB1C7"/>
</svg>
